<?xml version="1.0" encoding="utf-8"?>
<svg version="1.0" xmlns="http://www.w3.org/2000/svg" width="1024.000000pt" height="1024.000000pt" viewBox="0 0 1024.000000 1024.000000" preserveAspectRatio="xMidYMid meet">
  <rect x="102.495" y="78.769" width="831.348" height="871.839" style="stroke: rgb(0, 0, 0); fill: rgb(255, 255, 255);"/>
  <g transform="translate(0.000000,1024.000000) scale(0.100000,-0.100000)" fill="#000000" stroke="none" style="">
    <path d="M968 10089 c-219 -32 -410 -130 -559 -286 -126 -132 -207 -286 -246 -464 -17 -80 -18 -274 -18 -4219 0 -3945 1 -4139 18 -4219 38 -176 117 -326 241 -458 130 -138 283 -227 473 -276 l88 -22 4155 0 4155 0 88 22 c186 48 341 137 468 270 122 128 203 277 245 454 18 70 19 269 22 4144 2 2740 -1 4108 -8 4185 -20 234 -100 413 -254 577 -128 135 -279 224 -468 275 l-83 23 -4130 1 c-2271 1 -4156 -2 -4187 -7z m7652 -2137 l0 -1168 -1407 -1897 -1408 -1896 -922 0 c-508 -1 -923 1 -923 4 0 3 711 963 1580 2133 l1580 2127 0 333 0 332 -2750 0 -2750 0 0 600 0 600 3500 0 3500 0 0 -1168z m-2340 -707 c0 -3 -711 -962 -1580 -2132 l-1580 -2128 0 -332 0 -333 2750 0 2750 0 0 -600 0 -600 -3500 0 -3500 0 0 1178 0 1177 1402 1888 1402 1887 928 0 c510 0 928 -2 928 -5z" style="fill: rgb(45, 103, 231);"/>
  </g>
</svg>